<mxfile host="Electron" modified="2024-02-25T12:10:03.810Z" agent="Mozilla/5.0 (Windows NT 10.0; Win64; x64) AppleWebKit/537.36 (KHTML, like Gecko) draw.io/23.1.5 Chrome/120.0.6099.109 Electron/28.1.0 Safari/537.36" etag="KPGL_61PMmi6C_1Vow-O" version="23.1.5" type="device" pages="2">
  <diagram id="yk9QhhCauS7060eMAV8p" name="Page-1">
    <mxGraphModel dx="1418" dy="868" grid="1" gridSize="10" guides="1" tooltips="1" connect="1" arrows="1" fold="1" page="1" pageScale="1" pageWidth="827" pageHeight="1169" math="0" shadow="0">
      <root>
        <mxCell id="0" />
        <mxCell id="1" parent="0" />
        <mxCell id="NQ_EnWO6ieH__1dfTqf_-3" style="edgeStyle=orthogonalEdgeStyle;rounded=0;orthogonalLoop=1;jettySize=auto;html=1;entryX=0;entryY=0.5;entryDx=0;entryDy=0;" parent="1" source="NQ_EnWO6ieH__1dfTqf_-1" target="NQ_EnWO6ieH__1dfTqf_-2" edge="1">
          <mxGeometry relative="1" as="geometry" />
        </mxCell>
        <mxCell id="NQ_EnWO6ieH__1dfTqf_-1" value="booking app" style="rounded=1;whiteSpace=wrap;html=1;" parent="1" vertex="1">
          <mxGeometry x="120" y="120" width="120" height="60" as="geometry" />
        </mxCell>
        <mxCell id="NQ_EnWO6ieH__1dfTqf_-9" value="" style="edgeStyle=orthogonalEdgeStyle;rounded=0;orthogonalLoop=1;jettySize=auto;html=1;" parent="1" source="NQ_EnWO6ieH__1dfTqf_-2" target="NQ_EnWO6ieH__1dfTqf_-8" edge="1">
          <mxGeometry relative="1" as="geometry" />
        </mxCell>
        <mxCell id="NQ_EnWO6ieH__1dfTqf_-12" value="" style="edgeStyle=orthogonalEdgeStyle;rounded=0;orthogonalLoop=1;jettySize=auto;html=1;" parent="1" source="NQ_EnWO6ieH__1dfTqf_-2" target="NQ_EnWO6ieH__1dfTqf_-11" edge="1">
          <mxGeometry relative="1" as="geometry" />
        </mxCell>
        <mxCell id="NQ_EnWO6ieH__1dfTqf_-2" value="spring boot" style="rounded=1;whiteSpace=wrap;html=1;" parent="1" vertex="1">
          <mxGeometry x="360" y="120" width="120" height="60" as="geometry" />
        </mxCell>
        <mxCell id="NQ_EnWO6ieH__1dfTqf_-7" value="&lt;br&gt;sql" style="strokeWidth=2;html=1;shape=mxgraph.flowchart.database;whiteSpace=wrap;" parent="1" vertex="1">
          <mxGeometry x="390" y="400" width="60" height="60" as="geometry" />
        </mxCell>
        <mxCell id="NQ_EnWO6ieH__1dfTqf_-10" style="edgeStyle=orthogonalEdgeStyle;rounded=0;orthogonalLoop=1;jettySize=auto;html=1;entryX=0.5;entryY=0;entryDx=0;entryDy=0;entryPerimeter=0;" parent="1" source="NQ_EnWO6ieH__1dfTqf_-8" target="NQ_EnWO6ieH__1dfTqf_-7" edge="1">
          <mxGeometry relative="1" as="geometry" />
        </mxCell>
        <mxCell id="NQ_EnWO6ieH__1dfTqf_-8" value="save booking" style="rounded=1;whiteSpace=wrap;html=1;" parent="1" vertex="1">
          <mxGeometry x="360" y="260" width="120" height="60" as="geometry" />
        </mxCell>
        <mxCell id="NQ_EnWO6ieH__1dfTqf_-15" style="edgeStyle=orthogonalEdgeStyle;rounded=0;orthogonalLoop=1;jettySize=auto;html=1;" parent="1" source="NQ_EnWO6ieH__1dfTqf_-11" target="NQ_EnWO6ieH__1dfTqf_-14" edge="1">
          <mxGeometry relative="1" as="geometry" />
        </mxCell>
        <mxCell id="NQ_EnWO6ieH__1dfTqf_-11" value="rabbitMQ" style="rounded=1;whiteSpace=wrap;html=1;" parent="1" vertex="1">
          <mxGeometry x="580" y="120" width="120" height="60" as="geometry" />
        </mxCell>
        <mxCell id="NQ_EnWO6ieH__1dfTqf_-13" value="message" style="text;html=1;align=center;verticalAlign=middle;resizable=0;points=[];autosize=1;strokeColor=none;fillColor=none;" parent="1" vertex="1">
          <mxGeometry x="510" y="120" width="60" height="20" as="geometry" />
        </mxCell>
        <mxCell id="NQ_EnWO6ieH__1dfTqf_-17" style="edgeStyle=orthogonalEdgeStyle;rounded=0;orthogonalLoop=1;jettySize=auto;html=1;exitX=0.5;exitY=1;exitDx=0;exitDy=0;entryX=1;entryY=0.5;entryDx=0;entryDy=0;entryPerimeter=0;" parent="1" source="NQ_EnWO6ieH__1dfTqf_-14" target="NQ_EnWO6ieH__1dfTqf_-7" edge="1">
          <mxGeometry relative="1" as="geometry" />
        </mxCell>
        <mxCell id="NQ_EnWO6ieH__1dfTqf_-14" value="email sender" style="rounded=1;whiteSpace=wrap;html=1;" parent="1" vertex="1">
          <mxGeometry x="800" y="120" width="120" height="60" as="geometry" />
        </mxCell>
        <mxCell id="NQ_EnWO6ieH__1dfTqf_-16" value="" style="verticalLabelPosition=bottom;verticalAlign=top;html=1;strokeWidth=2;shape=mxgraph.arrows2.arrow;dy=0.6;dx=40;notch=0;" parent="1" vertex="1">
          <mxGeometry x="1000" y="120" width="100" height="70" as="geometry" />
        </mxCell>
        <mxCell id="NQ_EnWO6ieH__1dfTqf_-18" value="email sent - update" style="text;html=1;align=center;verticalAlign=middle;resizable=0;points=[];autosize=1;strokeColor=none;fillColor=none;" parent="1" vertex="1">
          <mxGeometry x="610" y="400" width="120" height="20" as="geometry" />
        </mxCell>
      </root>
    </mxGraphModel>
  </diagram>
  <diagram id="poCQW6JtOiV7nxFzQbsw" name="Page-2">
    <mxGraphModel dx="1422" dy="903" grid="1" gridSize="10" guides="1" tooltips="1" connect="1" arrows="1" fold="1" page="1" pageScale="1" pageWidth="827" pageHeight="1169" math="0" shadow="0">
      <root>
        <mxCell id="0" />
        <mxCell id="1" parent="0" />
        <mxCell id="dvuyaFkgOAm0IVh_ETv_-2" value="booking app" style="rounded=1;whiteSpace=wrap;html=1;" vertex="1" parent="1">
          <mxGeometry x="294" y="295" width="120" height="60" as="geometry" />
        </mxCell>
        <mxCell id="dvuyaFkgOAm0IVh_ETv_-4" value="" style="edgeStyle=orthogonalEdgeStyle;rounded=0;orthogonalLoop=1;jettySize=auto;html=1;startArrow=none;" edge="1" parent="1" source="dvuyaFkgOAm0IVh_ETv_-13" target="dvuyaFkgOAm0IVh_ETv_-10">
          <mxGeometry relative="1" as="geometry" />
        </mxCell>
        <mxCell id="dvuyaFkgOAm0IVh_ETv_-6" value="&lt;br&gt;mongo" style="strokeWidth=2;html=1;shape=mxgraph.flowchart.database;whiteSpace=wrap;" vertex="1" parent="1">
          <mxGeometry x="300" y="575" width="60" height="60" as="geometry" />
        </mxCell>
        <mxCell id="dvuyaFkgOAm0IVh_ETv_-7" style="edgeStyle=orthogonalEdgeStyle;rounded=0;orthogonalLoop=1;jettySize=auto;html=1;entryX=0.5;entryY=0;entryDx=0;entryDy=0;entryPerimeter=0;" edge="1" parent="1" source="dvuyaFkgOAm0IVh_ETv_-8" target="dvuyaFkgOAm0IVh_ETv_-6">
          <mxGeometry relative="1" as="geometry" />
        </mxCell>
        <mxCell id="dvuyaFkgOAm0IVh_ETv_-8" value="save booking" style="rounded=1;whiteSpace=wrap;html=1;" vertex="1" parent="1">
          <mxGeometry x="510" y="485" width="120" height="60" as="geometry" />
        </mxCell>
        <mxCell id="dvuyaFkgOAm0IVh_ETv_-18" style="edgeStyle=orthogonalEdgeStyle;rounded=0;orthogonalLoop=1;jettySize=auto;html=1;entryX=0.417;entryY=-0.033;entryDx=0;entryDy=0;entryPerimeter=0;" edge="1" parent="1" source="dvuyaFkgOAm0IVh_ETv_-10" target="dvuyaFkgOAm0IVh_ETv_-16">
          <mxGeometry relative="1" as="geometry" />
        </mxCell>
        <mxCell id="dvuyaFkgOAm0IVh_ETv_-10" value="rabbitMQ" style="rounded=1;whiteSpace=wrap;html=1;" vertex="1" parent="1">
          <mxGeometry x="870" y="295" width="120" height="60" as="geometry" />
        </mxCell>
        <mxCell id="dvuyaFkgOAm0IVh_ETv_-12" style="edgeStyle=orthogonalEdgeStyle;rounded=0;orthogonalLoop=1;jettySize=auto;html=1;exitX=0.5;exitY=1;exitDx=0;exitDy=0;entryX=1;entryY=0.5;entryDx=0;entryDy=0;" edge="1" parent="1" source="dvuyaFkgOAm0IVh_ETv_-13" target="dvuyaFkgOAm0IVh_ETv_-8">
          <mxGeometry relative="1" as="geometry" />
        </mxCell>
        <mxCell id="dvuyaFkgOAm0IVh_ETv_-15" value="email sent - update" style="text;html=1;align=center;verticalAlign=middle;resizable=0;points=[];autosize=1;strokeColor=none;fillColor=none;" vertex="1" parent="1">
          <mxGeometry x="900" y="410" width="120" height="20" as="geometry" />
        </mxCell>
        <mxCell id="dvuyaFkgOAm0IVh_ETv_-16" value="email sender" style="rounded=1;whiteSpace=wrap;html=1;" vertex="1" parent="1">
          <mxGeometry x="880" y="435" width="120" height="60" as="geometry" />
        </mxCell>
        <mxCell id="dvuyaFkgOAm0IVh_ETv_-13" value="spring boot&lt;br&gt;(saving booking)" style="rounded=1;whiteSpace=wrap;html=1;" vertex="1" parent="1">
          <mxGeometry x="617" y="295" width="120" height="60" as="geometry" />
        </mxCell>
        <mxCell id="dvuyaFkgOAm0IVh_ETv_-17" value="" style="edgeStyle=orthogonalEdgeStyle;rounded=0;orthogonalLoop=1;jettySize=auto;html=1;endArrow=none;exitX=1;exitY=0.5;exitDx=0;exitDy=0;" edge="1" parent="1" source="dvuyaFkgOAm0IVh_ETv_-2" target="dvuyaFkgOAm0IVh_ETv_-13">
          <mxGeometry relative="1" as="geometry">
            <mxPoint x="480" y="150" as="sourcePoint" />
            <mxPoint x="990" y="110" as="targetPoint" />
          </mxGeometry>
        </mxCell>
      </root>
    </mxGraphModel>
  </diagram>
</mxfile>
